<svg width="40" height="40" viewBox="0 0 40 40" fill="none" xmlns="http://www.w3.org/2000/svg">
<path d="M26 23.9844L28.0156 26V26.9844H11.9844V26L14 23.9844V19.0156C14 17.4531 14.3984 16.0938 15.1953 14.9375C15.9922 13.7812 17.0938 13.0312 18.5 12.6875V11.9844C18.5 11.5781 18.6406 11.2266 18.9219 10.9297C19.2031 10.6328 19.5625 10.4844 20 10.4844C20.4375 10.4844 20.7969 10.6328 21.0781 10.9297C21.3594 11.2266 21.5 11.5781 21.5 11.9844V12.6875C22.9062 13.0312 24.0078 13.7812 24.8047 14.9375C25.6016 16.0938 26 17.4531 26 19.0156V23.9844ZM20 29.9844C19.4375 29.9844 18.9609 29.7969 18.5703 29.4219C18.1797 29.0469 17.9844 28.5781 17.9844 28.0156H22.0156C22.0156 28.5469 21.8125 29.0078 21.4062 29.3984C21 29.7891 20.5312 29.9844 20 29.9844Z" fill="#475569"/>
<rect x="24" y="8" width="8" height="8" rx="4" fill="#F20D0D"/>
</svg>
